<svg width="18" height="18" viewBox="0 0 18 18" fill="none" xmlns="http://www.w3.org/2000/svg">
<g clip-path="url(#clip0_138_21)">
<path d="M9.24506 9.1498L8.84639 8.75113L9.91522 11.1334L12.1189 8.92968L8.11999 7.13445L8.45262 7.87797L9.48475 8.91011C9.55079 8.97615 9.55079 9.08376 9.48475 9.15225C9.41872 9.21584 9.3111 9.21584 9.24506 9.1498ZM9.60704 4.20925L9.79048 4.39269L12.5616 5.71587L10.331 3.48529L9.60704 4.20925ZM12.3782 4.08941L11.0525 2.76377L10.5707 3.2456L12.86 5.53488C12.8918 5.56668 12.9089 5.6107 12.9089 5.65473C12.9089 5.69875 12.8918 5.74278 12.86 5.77457C12.8355 5.79903 12.8062 5.81126 12.7744 5.8186L14.4351 6.61104L17.079 3.96956C17.3456 3.70297 17.3456 3.2725 17.079 3.00591L14.4277 0.352198C14.1612 0.0856037 13.7307 0.0856037 13.4641 0.352198L12.2583 1.55799L14.5476 3.84727C14.6136 3.91331 14.6136 4.02092 14.5476 4.08941C14.5158 4.1212 14.4718 4.13832 14.4277 4.13832C14.3837 4.13832 14.3397 4.1212 14.3079 4.08941L12.0162 1.80012L11.2922 2.52408L12.6178 3.84972C12.6619 3.89129 12.6814 3.95489 12.6668 4.01603C12.6521 4.07718 12.6056 4.12365 12.5445 4.13832C12.4833 4.153 12.4222 4.13343 12.3782 4.08941ZM5.02603 8.78782L4.5442 9.26964L5.86984 10.5953C5.90163 10.6271 5.91875 10.6711 5.91875 10.7151C5.91875 10.7616 5.90163 10.8032 5.86984 10.835C5.8038 10.901 5.69618 10.901 5.6277 10.835L4.30207 9.50933L3.57811 10.2333L5.86739 12.5226C5.93343 12.5886 5.93343 12.6962 5.86739 12.7647C5.80135 12.8308 5.69374 12.8308 5.62525 12.7647L3.33597 10.4754L2.85414 10.9573L4.17978 12.2829C4.21157 12.3147 4.22869 12.3587 4.22869 12.4027C4.22869 12.4468 4.21157 12.4908 4.17978 12.5226C4.11374 12.5886 4.00612 12.5886 3.93764 12.5226L2.61201 11.1969L1.88805 11.9209L4.17733 14.2102C4.20913 14.242 4.22625 14.286 4.22625 14.33C4.22625 14.3741 4.20913 14.4181 4.17733 14.4499C4.11129 14.5159 4.00368 14.5159 3.9352 14.4499L1.64591 12.1606L0.200434 13.6061C-0.0661602 13.8727 -0.0661602 14.3031 0.200434 14.5697L2.8517 17.221C3.11829 17.4876 3.54876 17.4876 3.81535 17.221L7.57212 13.4642L5.59835 9.36014L5.02603 8.78782Z" fill="#285AD8"/>
<path d="M16.7442 9.41884L16.6464 9.12534C16.4483 8.33045 15.9126 8.01249 15.9126 8.01249L13.9658 7.08064L10.9819 5.65473L10.1943 5.27807L9.0717 4.73999L7.95152 4.20436C8.06158 3.99157 7.87325 3.769 7.87325 3.769L5.03121 0.926964L4.12137 1.83681L2.54382 0.259257C2.33837 0.0538079 2.15982 0 2.02775 0C1.88589 0 1.80274 0.0611454 1.80274 0.0611454L1.50679 0.357089L1.27933 0.58455L1.05187 0.812011C1.05187 0.812011 0.75348 1.196 1.17905 1.62158L2.7566 3.19913L1.84676 4.10897L4.6888 6.95101C4.6888 6.95101 4.82821 7.03417 4.98474 7.03417C5.041 7.03417 5.0997 7.02438 5.1584 6.99504L5.69647 8.11522L6.49381 9.77348L6.9414 10.7029L8.04446 12.9971L8.98365 14.9415C8.98365 14.9415 9.31139 15.4673 10.1063 15.6655L10.4511 15.778L11.1604 16.5313C11.3806 16.7636 11.5322 16.8859 11.5933 16.8859C11.6398 16.8859 11.6325 16.8125 11.5542 16.6609L11.2387 16.0372L11.4637 16.1106L9.44102 11.6078L7.60177 7.50621L7.21044 6.63305L7.2031 6.61593L7.16396 6.53033L7.51616 6.17569L7.60177 6.21237L7.88059 6.33711L8.75619 6.73333L12.5912 8.45519L17.0964 10.4803L16.9864 10.1477L17.7348 10.5097C17.7348 10.5097 18.1408 10.3189 17.9696 10.0327L16.7442 9.41884Z" fill="#285AD8"/>
</g>
<defs>
<clipPath id="clip0_138_21">
<rect width="18" height="17.4216" fill="white"/>
</clipPath>
</defs>
</svg>
