<svg width="20" height="20" viewBox="0 0 20 20" fill="none" xmlns="http://www.w3.org/2000/svg">
<path d="M18.42 4.22C18.3133 4.34 18.2133 4.44667 18.12 4.54L17.88 4.78C17.8 4.86 17.7267 4.92667 17.66 4.98L14.96 2.26C15.0667 2.15334 15.2 2.02667 15.36 1.88001C15.52 1.73334 15.6533 1.62001 15.76 1.54001C16.0267 1.32667 16.3133 1.23334 16.62 1.26001C16.9267 1.28667 17.1733 1.34667 17.36 1.44001C17.56 1.54667 17.7833 1.73334 18.03 2.00001C18.2767 2.26667 18.4667 2.54667 18.6 2.84C18.6667 3.02667 18.71 3.24667 18.73 3.5C18.75 3.75334 18.6467 3.99334 18.42 4.22ZM10.78 6.44L13.88 3.34L16.58 6.04C15.4467 7.17334 14.4133 8.2 13.48 9.12C13.08 9.50667 12.69 9.89 12.31 10.27C11.93 10.65 11.5833 10.99 11.27 11.29C10.9567 11.59 10.7 11.84 10.5 12.04L10.14 12.4C10.0467 12.4933 9.94 12.5867 9.82 12.68C9.7 12.7733 9.56667 12.8533 9.42 12.92C9.27333 12.9867 9.07 13.0667 8.81 13.16C8.55 13.2533 8.28 13.3433 8 13.43C7.72 13.5167 7.45333 13.5967 7.2 13.67C6.94667 13.7433 6.75333 13.7867 6.62 13.8C6.36667 13.8267 6.23 13.8033 6.21 13.73C6.19 13.6567 6.2 13.4933 6.24 13.24C6.25333 13.1067 6.28667 12.91 6.34 12.65C6.39333 12.39 6.44667 12.1267 6.5 11.86C6.55333 11.5933 6.61 11.3433 6.67 11.11C6.73 10.8767 6.78 10.7133 6.82 10.62C6.88667 10.4733 6.95667 10.3467 7.03 10.24C7.10333 10.1333 7.20667 10.0133 7.34 9.88L10.78 6.44ZM17.56 9.34C17.84 9.34 18.1067 9.40667 18.36 9.54C18.6133 9.67333 18.74 9.94667 18.74 10.36V14.9C18.74 15.2733 18.67 15.6167 18.53 15.93C18.39 16.2433 18.2 16.5167 17.96 16.75C17.72 16.9833 17.4467 17.1633 17.14 17.29C16.8333 17.4167 16.52 17.48 16.2 17.48H5.04C4.72 17.48 4.40667 17.41 4.1 17.27C3.79333 17.13 3.52333 16.94 3.29 16.7C3.05667 16.46 2.86667 16.1767 2.72 15.85C2.57333 15.5233 2.5 15.1733 2.5 14.8V3.66C2.5 3.39334 2.57333 3.11667 2.72 2.83C2.86667 2.54334 3.05667 2.28334 3.29 2.05001C3.52333 1.81667 3.78667 1.62334 4.08 1.47001C4.37333 1.31667 4.66667 1.24001 4.96 1.24001H9.62C9.99333 1.24001 10.2567 1.37667 10.41 1.65001C10.5633 1.92334 10.64 2.2 10.64 2.48C10.64 2.76 10.5633 3.03 10.41 3.29C10.2567 3.55 9.99333 3.68 9.62 3.68H5.96C5.68 3.68 5.45333 3.77667 5.28 3.97C5.10667 4.16334 5.02 4.4 5.02 4.68V14.08C5.02 14.3467 5.10667 14.57 5.28 14.75C5.45333 14.93 5.68 15.02 5.96 15.02H15.22C15.5 15.02 15.74 14.93 15.94 14.75C16.14 14.57 16.24 14.3467 16.24 14.08V10.36C16.24 10.1733 16.2833 10.0133 16.37 9.88C16.4567 9.74667 16.5633 9.64 16.69 9.56C16.8167 9.48 16.9567 9.42333 17.11 9.39C17.2633 9.35667 17.4133 9.34 17.56 9.34Z" fill="#717986"/>
</svg>
