<svg width="21" height="21" viewBox="0 0 21 21" fill="none" xmlns="http://www.w3.org/2000/svg">
<path d="M17.0625 11.8125H7.875V9.1875H17.0625L15.75 6.5625H18.375L21 10.5L18.375 14.4375H15.75L17.0625 11.8125ZM17.9263 3.0765L16.0692 4.9329C15.339 4.19997 14.4709 3.61872 13.5151 3.22264C12.5593 2.82655 11.5346 2.62344 10.5 2.625C6.1509 2.625 2.625 6.1509 2.625 10.5C2.625 14.8491 6.1509 18.375 10.5 18.375C12.6161 18.375 14.5964 17.5385 16.065 16.072L17.9193 17.9298C16.9455 18.9046 15.7889 19.6776 14.5157 20.2045C13.2425 20.7313 11.8779 21.0017 10.5 21C4.7012 21 0 16.2988 0 10.5C0 4.7012 4.7012 0 10.5 0C13.3224 0 15.9705 1.12 17.9263 3.0765Z" fill="#717986"/>
</svg>
