<svg width="24" height="24" viewBox="0 0 24 24" fill="none" xmlns="http://www.w3.org/2000/svg">
<path d="M3 15.15H21V16.65H3V15.15Z" fill="white"/>
<path d="M3 18H21V21H3V18Z" fill="white"/>
<path d="M12.6006 3.3C12.4506 3.15 12.3006 3 12.0006 3C11.7006 3 11.5506 3.15 11.4006 3.3L8.25059 6.45C7.95059 6.75 7.95059 7.05 8.25059 7.35L8.40059 7.5C8.70059 7.8 9.00059 7.8 9.30059 7.5L11.2506 5.55L11.2506 12.75C11.2506 13.2 11.5506 13.5 12.0006 13.5C12.4506 13.5 12.7506 13.2 12.7506 12.75L12.7506 5.55L14.7006 7.65C15.0006 7.8 15.4506 7.8 15.6006 7.65L15.7506 7.5C16.0506 7.2 16.0506 6.9 15.7506 6.6L12.6006 3.3Z" fill="white"/>
</svg>
