<svg width="24" height="24" viewBox="0 0 24 24" fill="none" xmlns="http://www.w3.org/2000/svg">
<path d="M3 15.15H21V16.65H3V15.15Z" fill="white"/>
<path d="M3 18H21V21H3V18Z" fill="white"/>
<path d="M11.4004 13.2C11.5504 13.35 11.7004 13.5 12.0004 13.5C12.3004 13.5 12.4504 13.35 12.6004 13.2L15.7504 10.05C16.0504 9.75 16.0504 9.45 15.7504 9.15L15.6004 9C15.3004 8.7 15.0004 8.7 14.7004 9L12.7504 10.95V3.75C12.7504 3.3 12.4504 3 12.0004 3C11.5504 3 11.2504 3.3 11.2504 3.75V10.95L9.30039 8.85C9.00039 8.7 8.55039 8.7 8.40039 8.85L8.25039 9C7.95039 9.3 7.95039 9.6 8.25039 9.9L11.4004 13.2Z" fill="white"/>
</svg>
