<svg width="24" height="24" viewBox="0 0 24 24" fill="none" xmlns="http://www.w3.org/2000/svg">
<path d="M9.5 3L12.207 5.707C12.3945 5.89455 12.6488 5.99994 12.914 6H19.5C20.2956 6 21.0587 6.31607 21.6213 6.87868C22.1839 7.44129 22.5 8.20435 22.5 9V18C22.5 18.7956 22.1839 19.5587 21.6213 20.1213C21.0587 20.6839 20.2956 21 19.5 21H4.5C3.70435 21 2.94129 20.6839 2.37868 20.1213C1.81607 19.5587 1.5 18.7956 1.5 18V6C1.5 5.20435 1.81607 4.44129 2.37868 3.87868C2.94129 3.31607 3.70435 3 4.5 3H9.5ZM8.671 5H4.5C4.24763 4.99979 4.00451 5.09502 3.81941 5.26658C3.63431 5.43814 3.52093 5.67334 3.502 5.925L3.5 6V18C3.50005 18.2522 3.59539 18.4951 3.76692 18.68C3.93845 18.8648 4.17351 18.9781 4.425 18.997L4.5 19H19.5C19.7522 19 19.9951 18.9046 20.18 18.7331C20.3648 18.5615 20.4781 18.3265 20.497 18.075L20.5 18V9C20.5002 8.74763 20.405 8.50451 20.2334 8.31941C20.0619 8.13431 19.8267 8.02093 19.575 8.002L19.5 8H12.914C12.1668 8 11.4464 7.72114 10.894 7.218L10.793 7.122L8.672 5H8.671ZM12.164 10.128C12.2569 10.035 12.3672 9.96126 12.4886 9.91094C12.61 9.86062 12.7401 9.83471 12.8715 9.83471C13.0029 9.83471 13.133 9.86062 13.2544 9.91094C13.3758 9.96126 13.4861 10.035 13.579 10.128L16.407 12.957C16.5945 13.1445 16.6998 13.3988 16.6998 13.664C16.6998 13.9292 16.5945 14.1835 16.407 14.371L13.578 17.2C13.3894 17.3822 13.1368 17.483 12.8746 17.4807C12.6124 17.4784 12.3616 17.3732 12.1762 17.1878C11.9908 17.0024 11.8856 16.7516 11.8833 16.4894C11.881 16.2272 11.9818 15.9746 12.164 15.786L13.286 14.665H7.872C7.60678 14.665 7.35243 14.5596 7.16489 14.3721C6.97736 14.1846 6.872 13.9302 6.872 13.665C6.872 13.3998 6.97736 13.1454 7.16489 12.9579C7.35243 12.7704 7.60678 12.665 7.872 12.665H13.287L12.164 11.543C12.071 11.4501 11.9973 11.3398 11.9469 11.2184C11.8966 11.097 11.8707 10.9669 11.8707 10.8355C11.8707 10.7041 11.8966 10.574 11.9469 10.4526C11.9973 10.3312 12.071 10.2209 12.164 10.128Z" fill="white"/>
</svg>
