<svg width="64" height="40" viewBox="0 0 64 40" fill="none" xmlns="http://www.w3.org/2000/svg">
<path fill-rule="evenodd" clip-rule="evenodd" d="M19.5786 19.2128C19.2129 19.2128 18.8494 19.2658 18.4966 19.3694C18.9053 19.4488 19.271 19.4884 19.5872 19.4884C19.7873 19.4884 19.9594 19.4598 20.097 19.4047C20.1659 19.3782 20.2003 19.354 20.2175 19.3385C20.2003 19.3253 20.1659 19.3077 20.1078 19.2856C19.9723 19.2371 19.7937 19.2128 19.5786 19.2128Z" fill="#285AD8"/>
<path fill-rule="evenodd" clip-rule="evenodd" d="M11.8195 17.707C11.428 18.5867 11.0129 19.2327 10.5869 19.6252C10.2707 19.914 9.84695 20.1632 9.32422 20.3704C9.45114 20.3792 9.58235 20.3836 9.71572 20.3836C10.7117 20.3836 11.4969 19.9008 12.1164 18.9042C12.5187 18.2626 12.7209 17.6298 12.7209 17.0191C12.7209 16.781 12.6843 16.5517 12.6133 16.3334C12.3251 16.717 12.0583 17.1756 11.8195 17.707Z" fill="#285AD8"/>
<path fill-rule="evenodd" clip-rule="evenodd" d="M63.9933 18.0642C63.9395 17.621 63.69 17.3983 63.2361 17.4159C61.5109 17.4865 59.8696 17.1514 58.2928 16.4238C56.6837 15.6807 54.9929 15.597 53.3731 16.2628C49.813 17.7246 46.2658 17.6607 42.7035 16.3753C41.3439 15.8836 39.9758 15.4845 38.5367 15.3632C36.506 15.1935 34.5205 15.3897 32.578 16.0622C30.0418 16.9419 27.4583 17.5615 24.7478 17.3432C23.6228 17.2528 22.5451 16.9838 21.5835 16.3554C21.4544 16.2716 21.3964 16.0776 21.306 15.9321C21.4609 15.8659 21.6222 15.7292 21.7664 15.7469C22.8936 15.888 24.0186 15.8946 25.1372 15.716C26.2924 15.5308 27.3873 15.1714 28.3725 14.4901C28.9727 14.0734 29.5922 13.6611 30.2526 13.3613C32.3564 12.411 34.4689 12.3206 36.577 13.4054C37.1535 13.703 37.7666 13.9367 38.3818 14.1374C40.5459 14.8407 42.7164 14.9245 44.8804 14.1109C45.7129 13.7978 46.4099 13.2488 47.1606 12.7902C49.2838 11.496 51.5748 11.2138 53.9754 11.7738C55.3608 12.0957 56.7547 12.3007 58.1702 12.0009C59.0457 11.8157 59.8459 11.4717 60.4246 10.7287C60.6117 10.4884 60.6633 10.215 60.4568 9.96141C60.2525 9.70786 60.0331 9.72109 59.7405 9.87984C57.6969 10.9955 55.6555 10.9249 53.6571 9.75637C52.7321 9.21618 51.7447 8.95602 50.6949 8.93176C48.6729 8.88326 46.7734 9.42564 44.96 10.2855C43.8694 10.8015 42.7572 10.9007 41.5956 10.7111C39.9801 10.4465 38.4937 9.8181 37.0761 9.00452C35.5315 8.12038 33.8859 7.64193 32.1091 7.74115C31.0077 7.80288 29.9149 8.01675 28.9985 8.67159C26.9807 10.1135 24.7543 10.7772 22.3171 10.7199C21.2824 10.6956 20.2627 10.581 19.2839 10.1532C18.1503 9.65715 16.9457 9.39478 15.7281 9.20737C13.9104 8.92735 12.0798 8.8127 10.2448 8.91191C8.75625 8.99349 7.2698 9.11917 5.78551 9.2713C4.89279 9.3639 4.01082 9.55352 3.1224 9.6814C2.92234 9.71006 2.64915 9.80046 2.54805 9.52485C2.45555 9.2735 2.20816 9.01775 2.50932 8.71128C2.58891 8.6297 2.59752 8.32764 2.52438 8.26149C2.24043 7.99912 2.34584 7.69485 2.44479 7.45673C2.77822 6.64315 3.11379 5.82295 3.53757 5.05788C3.95489 4.30603 3.95704 3.6071 3.55908 2.8751C3.50315 2.77368 3.44507 2.67225 3.38914 2.57083C2.94816 1.7815 2.50932 0.989969 2.06834 0.20064C2.03392 0.138905 1.9909 0.0793738 1.93712 0C1.36922 1.01422 0.816373 1.98876 0.274284 2.9699C-0.106468 3.66002 -0.0935591 4.34571 0.330216 5.02039C0.448529 5.2056 0.549631 5.40183 0.657188 5.59586C1.04654 6.29699 1.40578 7.01356 1.49613 7.83155C1.50689 7.93517 1.49398 8.08069 1.4316 8.14904C1.17777 8.42244 1.19282 8.64954 1.51335 8.86782C1.48108 9.02216 1.4273 9.1787 1.41869 9.33965C1.37997 10.1532 1.32619 10.969 1.32619 11.7826C1.31974 20.1632 1.32189 31.1741 1.32189 39.5568C1.32189 39.7046 1.32189 39.8523 1.32189 40C1.75427 40 2.14578 40 2.55019 40C2.55019 37.2263 2.55019 31.851 2.55019 29.0552C2.83629 29.0552 3.08798 29.0288 3.33321 29.0596C5.12727 29.2889 6.91702 29.5756 8.71752 29.752C10.8364 29.9592 12.9617 30.1312 15.0871 30.2106C17.7631 30.3098 20.4391 30.2657 23.1044 29.9041C24.7392 29.6836 26.3913 29.5866 28.0305 29.397C30.3709 29.1236 32.7028 28.7532 34.9636 28.0807C37.0524 27.4589 39.1627 27.1458 41.3267 27.1855C42.555 27.2098 43.7876 27.2671 45.0095 27.384C46.0141 27.4788 47.0251 27.6111 48.006 27.8536C50.4174 28.4511 52.773 28.4732 55.0962 27.4523C55.6211 27.2208 56.2062 27.104 56.7762 27.0246C58.2777 26.8129 59.747 27.0665 61.2011 27.4501C61.3367 27.4854 61.5303 27.4744 61.6421 27.4016C62.0465 27.1326 61.9884 26.3345 61.5561 26.125C59.136 24.9432 56.6343 24.8793 54.1088 25.6576C53.0569 25.9817 52.0265 25.9883 50.9746 25.7943C49.7248 25.565 48.5546 25.0976 47.3908 24.5838C45.1579 23.5983 42.7701 23.2742 40.3716 23.111C38.5646 22.9897 36.7512 22.9853 34.94 22.9589C34.2236 22.9479 33.5052 22.9942 32.791 23.0537C31.453 23.1617 30.1193 23.3491 28.7812 23.4087C27.2432 23.4792 25.7073 23.3381 24.1864 23.0845C23.5475 22.9787 22.9172 22.8244 22.2869 22.6745C21.9922 22.6039 21.7728 22.2004 21.8524 21.9403C21.9255 21.7065 22.2525 21.5324 22.4935 21.6272C23.7605 22.1321 25.0899 22.2158 26.4214 22.2247C28.2585 22.2379 30.0827 22.0351 31.894 21.7352C32.8017 21.5853 33.7289 21.464 34.5979 21.173C36.093 20.6725 37.588 20.1984 39.1584 20.0397C40.5609 19.8964 41.9441 19.9294 43.3058 20.4035C45.543 21.184 47.8081 21.2391 50.0883 20.5733C51.0585 20.291 51.9276 19.7817 52.8439 19.3716C54.3304 18.708 55.9093 18.3376 57.5463 18.3045C58.4068 18.2868 59.2371 18.3905 60.0524 18.7212C61.1258 19.1533 62.2487 19.1908 63.3802 18.9505C63.7933 18.8645 64.0449 18.5007 63.9933 18.0642ZM3.30525 4.05688L2.78252 4.69187L2.25979 4.05688L2.78252 3.42189L3.30525 4.05688ZM1.93281 2.15191L2.45554 2.7869L1.93281 3.42189L1.41009 2.7869L1.93281 2.15191ZM0.560384 4.05688L1.08312 3.42189L1.60584 4.05688L1.08312 4.69187L0.560384 4.05688ZM1.41009 5.27615L1.93281 4.64116L2.45554 5.27615L1.93281 5.91114L1.41009 5.27615ZM2.56095 11.5202C2.56095 11.3813 2.58246 11.2358 2.62978 11.1079C2.66205 11.0175 2.75886 10.8874 2.82124 10.8919C2.91804 10.8963 3.06647 10.98 3.09228 11.066C3.28589 11.6613 3.48594 12.2566 3.62146 12.8652C3.91402 14.1881 3.95704 15.5176 3.58274 16.8361C3.56769 16.8912 3.55048 16.9485 3.52897 17.0014C3.24717 17.707 3.44077 17.6519 2.55665 17.5923C2.5588 15.5529 2.55665 13.5376 2.56095 11.5202ZM3.38054 27.1547C3.33321 27.2539 3.32461 27.3751 3.31385 27.4876C3.3031 27.589 3.3117 27.6948 3.3117 27.8205C3.0342 27.8205 2.81048 27.8205 2.57386 27.8205C2.57386 25.4459 2.57386 23.0912 2.57386 20.6901C2.78252 20.6901 2.98687 20.6703 3.18263 20.6989C3.28158 20.7144 3.41711 20.8003 3.44937 20.8885C4.20873 22.9853 4.40233 25.0755 3.38054 27.1547ZM20.0691 19.8677C19.7593 19.9779 19.3786 20.0331 18.9376 20.0331C18.5138 20.0331 17.9868 19.9757 17.3694 19.8611C17.0726 20.0287 16.7972 20.2712 16.5477 20.5865C16.2788 20.926 15.9841 21.4177 15.67 22.0461C15.3452 22.7031 15.1107 23.1287 14.9558 23.3513C14.7988 23.5784 14.5815 23.7989 14.3105 24.0106C13.5985 24.5508 12.8499 24.8242 12.0819 24.8242C11.6581 24.8242 11.3054 24.7294 11.03 24.5397C10.7331 24.3369 10.5847 24.0679 10.5847 23.7394C10.5847 23.563 10.6363 23.4087 10.7396 23.2808C10.8493 23.1463 10.9891 23.0735 11.1462 23.0735C11.4129 23.0735 11.5742 23.2411 11.5742 23.5233C11.5742 23.6534 11.5334 23.7681 11.4538 23.8629C11.3677 23.9643 11.2559 24.0172 11.1311 24.0172C11.1117 24.0172 11.0945 24.015 11.0752 24.015C11.1204 24.0811 11.1827 24.1429 11.2688 24.2002C11.4688 24.3369 11.7205 24.4074 12.0195 24.4074C12.6971 24.4074 13.3188 24.0855 13.8652 23.4506C14.1298 23.1441 14.4804 22.6259 14.9042 21.9116C15.5022 20.9106 16.1325 20.1852 16.7843 19.7486C16.7112 19.7332 16.6337 19.7156 16.5477 19.6957C15.8701 19.5458 15.3473 19.4686 14.9924 19.4686C14.9752 19.4686 14.9408 19.4708 14.8913 19.473C14.9644 19.6847 15.0032 19.914 15.0032 20.1632C15.0032 20.8158 14.7601 21.4353 14.2804 22.002C13.7942 22.5774 13.2629 22.8685 12.6993 22.8685C12.439 22.8685 12.2217 22.7759 12.0561 22.5973C11.8926 22.4187 11.8087 22.1894 11.8087 21.916C11.8087 21.5676 11.9356 21.1818 12.1873 20.7695C12.4326 20.366 12.7552 20.011 13.1424 19.7112C13.4586 19.4664 13.805 19.2812 14.1728 19.1556C14.0093 19.0211 13.805 18.9571 13.5533 18.9571C13.278 18.9571 12.9918 19.0365 12.7014 19.1908C12.5509 19.4091 12.3788 19.6097 12.1852 19.7883C11.4731 20.452 10.5912 20.7871 9.56292 20.7871C9.25746 20.7871 8.83584 20.7452 8.30881 20.6592C7.85061 20.743 7.40317 20.7871 6.98155 20.7871C6.07592 20.7871 5.74034 20.6813 5.74034 20.3991C5.74034 20.1676 6.02429 20.0772 6.11894 20.0485C6.31039 19.9868 6.53196 19.9581 6.7815 19.9581C7.07405 19.9581 7.6269 20.0507 8.47014 20.2381C8.99287 20.0926 9.40804 19.8655 9.7049 19.5656C10.0125 19.2548 10.4987 18.558 11.1483 17.4953C11.5248 16.878 11.9421 16.3356 12.3895 15.8858C12.0174 15.3214 11.4516 15.0457 10.6622 15.0457C9.7888 15.0457 8.97136 15.4051 8.23782 16.1151C7.86567 16.4745 7.56451 16.878 7.34294 17.3123C7.12352 17.7378 7.01382 18.1325 7.01382 18.4853C7.01382 18.741 7.08911 18.9395 7.24399 19.0894C7.40102 19.2415 7.60753 19.3165 7.87427 19.3165C8.34752 19.3165 8.8552 19.0431 9.38007 18.5029C9.9071 17.9627 10.1738 17.4424 10.1738 16.9595C10.1738 16.7986 10.1351 16.6773 10.0534 16.5847C10.019 16.545 9.98025 16.5164 9.93507 16.4943C9.94368 16.5274 9.94798 16.5605 9.94798 16.5979C9.94798 16.7346 9.89635 16.8581 9.7974 16.9573C9.70059 17.0566 9.57798 17.1073 9.44246 17.1073C9.18432 17.1073 9.03159 16.9419 9.03159 16.6641C9.03159 16.4877 9.10903 16.3334 9.25531 16.2121C9.39298 16.0997 9.56077 16.0423 9.75222 16.0423C9.99745 16.0423 10.1997 16.1283 10.3545 16.2981C10.5073 16.4657 10.5847 16.6817 10.5847 16.9419C10.5847 17.5482 10.2793 18.17 9.67693 18.7895C9.07461 19.4091 8.46799 19.7222 7.87643 19.7222C7.4548 19.7222 7.09986 19.5745 6.82451 19.2834C6.54917 18.9946 6.4115 18.6198 6.4115 18.1722C6.4115 17.255 6.85463 16.426 7.728 15.7072C8.59061 14.9972 9.58013 14.6379 10.6665 14.6379C11.5463 14.6379 12.2368 14.9531 12.7187 15.5771C13.3705 15.0039 14.0438 14.7128 14.7214 14.7128C15.1086 14.7128 15.4291 14.8451 15.6722 15.1053C15.9131 15.3632 16.0357 15.7028 16.0357 16.1129C16.0357 16.2672 16.0185 16.4304 15.9841 16.5979C15.9518 16.7523 15.9088 16.9662 15.7324 16.9662C15.627 16.9662 15.5453 16.8846 15.5453 16.7743C15.5453 16.7368 15.5517 16.7016 15.5625 16.6685C15.6205 16.512 15.6485 16.3312 15.6485 16.1217C15.6485 15.813 15.5625 15.5749 15.3839 15.3919C15.2054 15.2089 14.9709 15.1207 14.6697 15.1207C14.0868 15.1207 13.5081 15.4007 12.951 15.9519C13.1596 16.3885 13.2672 16.8537 13.2672 17.3366C13.2672 17.7974 13.1811 18.2317 13.0134 18.6286C13.1898 18.5801 13.3683 18.5558 13.5468 18.5558C14.0115 18.5558 14.3793 18.7124 14.6439 19.0233C14.9623 18.9417 15.3237 18.8998 15.7216 18.8998C15.9497 18.8998 16.1605 18.9152 16.3498 18.9439C16.5455 18.9747 16.9973 19.0651 17.7308 19.2195C18.3611 18.9439 18.9785 18.8028 19.5636 18.8028C19.826 18.8028 20.622 18.8028 20.622 19.3297C20.6198 19.6715 20.2068 19.8192 20.0691 19.8677Z" fill="#285AD8"/>
<path fill-rule="evenodd" clip-rule="evenodd" d="M12.9382 20.4211C12.4456 20.9282 12.196 21.4287 12.196 21.905C12.196 22.0659 12.2412 22.1938 12.3359 22.2996C12.4262 22.4032 12.5316 22.4496 12.6628 22.4496C13.0694 22.4496 13.4803 22.1762 13.889 21.6404C14.3063 21.0914 14.5171 20.5225 14.5171 19.9537C14.5171 19.7971 14.4913 19.656 14.4354 19.5193C13.9062 19.6406 13.4028 19.9427 12.9382 20.4211Z" fill="#285AD8"/>
</svg>
