<svg width="16" height="16" viewBox="0 0 16 16" fill="none" xmlns="http://www.w3.org/2000/svg">
<g clip-path="url(#clip0_137_10)">
<path d="M9.33819 6.90667H7.97819V0.240005H1.87995C1.6996 0.240005 1.52664 0.310244 1.39912 0.435268C1.27159 0.560292 1.19995 0.729861 1.19995 0.906672V15.5733C1.19995 15.7502 1.27159 15.9197 1.39912 16.0447C1.52664 16.1698 1.6996 16.24 1.87995 16.24H14.12C14.3003 16.24 14.4733 16.1698 14.6008 16.0447C14.7283 15.9197 14.8 15.7502 14.8 15.5733V6.90667H9.33819ZM9.33819 5.57334H14.7578C14.6259 4.54801 14.1893 4.30801 13.6956 3.82401L12.4852 2.63734L12.4839 2.63601L12.4852 2.63734L12.4676 2.62001L12.0528 2.21334L12.0364 2.19734L10.826 1.01067C10.4289 0.622672 10.1202 0.360005 9.33819 0.272005V5.57334Z" fill="#3C557A"/>
</g>
<defs>
<clipPath id="clip0_137_10">
<rect width="16" height="16" fill="white"/>
</clipPath>
</defs>
</svg>
