<svg width="24" height="24" viewBox="0 0 24 24" fill="none" xmlns="http://www.w3.org/2000/svg">
<path d="M8.60993 12.063C8.61053 11.9112 8.58106 11.7607 8.52322 11.6203C8.46539 11.4799 8.38034 11.3523 8.27297 11.245C8.1656 11.1376 8.03803 11.0525 7.89763 10.9947C7.75723 10.9369 7.60677 10.9074 7.45493 10.908H2.64743C2.34111 10.908 2.04733 11.0297 1.83072 11.2463C1.61412 11.4629 1.49243 11.7567 1.49243 12.063C1.49243 12.3693 1.61412 12.6631 1.83072 12.8797C2.04733 13.0963 2.34111 13.218 2.64743 13.218H7.45493C8.08493 13.218 8.60993 12.705 8.60993 12.063ZM8.00243 14.4435L4.60793 17.826C4.49977 17.9327 4.41388 18.0599 4.35526 18.2001C4.29664 18.3403 4.26646 18.4908 4.26646 18.6428C4.26646 18.7947 4.29664 18.9452 4.35526 19.0854C4.41388 19.2256 4.49977 19.3528 4.60793 19.4595C4.71468 19.5677 4.84184 19.6536 4.98205 19.7122C5.12226 19.7708 5.27271 19.801 5.42468 19.801C5.57665 19.801 5.7271 19.7708 5.86731 19.7122C6.00752 19.6536 6.13469 19.5677 6.24143 19.4595L9.63593 16.0755C9.84815 15.8559 9.96501 15.5613 9.96108 15.2559C9.95714 14.9506 9.83273 14.6591 9.61493 14.445C9.3984 14.2369 9.10974 14.1207 8.80943 14.1207C8.50912 14.1207 8.22046 14.2369 8.00393 14.445L8.00243 14.4435ZM12.0524 15.399C11.9006 15.3984 11.7501 15.4279 11.6097 15.4857C11.4693 15.5435 11.3418 15.6286 11.2344 15.736C11.127 15.8433 11.042 15.9709 10.9841 16.1113C10.9263 16.2517 10.8968 16.4022 10.8974 16.554V21.339C10.8974 21.9795 11.4089 22.494 12.0524 22.494C12.6929 22.494 13.2074 21.9795 13.2074 21.339V16.554C13.209 16.4019 13.1803 16.251 13.1228 16.1101C13.0653 15.9693 12.9803 15.8413 12.8727 15.7337C12.7651 15.6261 12.6372 15.5411 12.4963 15.4837C12.3555 15.4262 12.2046 15.3974 12.0524 15.399ZM16.0754 14.373C15.8555 14.1605 15.5605 14.0436 15.2548 14.0479C14.949 14.0521 14.6574 14.177 14.4434 14.3955C14.2354 14.6097 14.1191 14.8965 14.1191 15.195C14.1191 15.4935 14.2354 15.7803 14.4434 15.9945L17.8379 19.3785C17.9447 19.4867 18.0718 19.5726 18.2121 19.6312C18.3523 19.6898 18.5027 19.72 18.6547 19.72C18.8067 19.72 18.9571 19.6898 19.0973 19.6312C19.2375 19.5726 19.3647 19.4867 19.4714 19.3785C19.5798 19.2717 19.6659 19.1445 19.7247 19.0041C19.7834 18.8638 19.8137 18.7131 19.8137 18.561C19.8137 18.4089 19.7834 18.2582 19.7247 18.1179C19.6659 17.9775 19.5798 17.8503 19.4714 17.7435L16.0754 14.373ZM21.3614 10.815H16.5539C16.4022 10.8114 16.2513 10.8379 16.1098 10.8929C15.9684 10.9479 15.8392 11.0303 15.7298 11.1354C15.6203 11.2406 15.5328 11.3663 15.4721 11.5054C15.4115 11.6445 15.379 11.7943 15.3764 11.946C15.3708 12.2521 15.4866 12.548 15.6986 12.769C15.9105 12.9899 16.2013 13.1179 16.5074 13.125H21.3614C21.5133 13.1225 21.6632 13.0899 21.8024 13.0292C21.9416 12.9684 22.0674 12.8807 22.1725 12.7711C22.2777 12.6615 22.3601 12.5322 22.415 12.3905C22.4699 12.2489 22.4962 12.0978 22.4924 11.946C22.492 11.6462 22.3727 11.3587 22.1607 11.1467C21.9487 10.9347 21.6613 10.8154 21.3614 10.815ZM16.0064 9.5895L19.4009 6.2055C19.5089 6.09878 19.5946 5.97171 19.653 5.83164C19.7115 5.69157 19.7416 5.54129 19.7416 5.3895C19.7416 5.23771 19.7115 5.08743 19.653 4.94736C19.5946 4.80729 19.5089 4.68022 19.4009 4.5735C19.2942 4.46533 19.167 4.37945 19.0268 4.32083C18.8866 4.26221 18.7361 4.23202 18.5842 4.23202C18.4322 4.23202 18.2818 4.26221 18.1416 4.32083C18.0013 4.37945 17.8742 4.46533 17.7674 4.5735L14.3729 7.956C14.1538 8.16981 14.0283 8.46168 14.0238 8.7678C14.0193 9.07391 14.1362 9.36935 14.3489 9.5895C14.5628 9.80907 14.855 9.9349 15.1615 9.93939C15.468 9.94389 15.7637 9.8267 15.9839 9.6135L16.0064 9.5895ZM11.9564 8.6325C12.5999 8.6325 13.1114 8.1195 13.1114 7.4775V2.694C13.1167 2.38814 13.0007 2.09263 12.7888 1.87202C12.5768 1.6514 12.2863 1.52359 11.9804 1.5165C11.8287 1.51292 11.6778 1.53939 11.5363 1.59438C11.3949 1.64937 11.2657 1.73181 11.1563 1.83693C11.0468 1.94206 10.9593 2.0678 10.8986 2.20691C10.838 2.34603 10.8055 2.49576 10.8029 2.6475V7.4775C10.8013 7.62962 10.8301 7.78054 10.8876 7.92139C10.9451 8.06225 11.0301 8.19021 11.1376 8.29779C11.2452 8.40536 11.3732 8.49038 11.514 8.54785C11.6549 8.60533 11.8058 8.63411 11.9579 8.6325H11.9564ZM7.93493 9.66C8.15502 9.87228 8.45013 9.9889 8.75588 9.9844C9.06163 9.97991 9.35318 9.85466 9.56693 9.636C9.77449 9.42191 9.89057 9.13544 9.89057 8.83725C9.89057 8.53906 9.77449 8.25259 9.56693 8.0385L6.17093 4.6425C5.95078 4.42976 5.65534 4.31286 5.34923 4.31735C5.04311 4.32185 4.75124 4.44738 4.53743 4.6665C4.32987 4.88059 4.2138 5.16706 4.2138 5.46525C4.2138 5.76344 4.32987 6.04991 4.53743 6.264L7.93493 9.66Z" fill="white"/>
</svg>
