<svg width="20" height="20" viewBox="0 0 20 20" fill="none" xmlns="http://www.w3.org/2000/svg">
<path d="M16.668 6.51367H3.90239C3.82622 6.51367 3.76567 6.58008 3.77348 6.65625L4.94731 18.9609C4.94731 19.5332 5.41215 19.998 5.98442 19.998H14.5899C15.1621 19.998 15.627 19.5332 15.627 18.9609L16.8008 6.65625C16.8047 6.58008 16.7461 6.51367 16.668 6.51367ZM7.59379 17.4004H7.21293C6.95903 17.4004 6.752 17.1934 6.752 16.9395L6.27739 9.5957C6.27739 9.3418 6.48442 9.13477 6.73832 9.13477H7.11918C7.37309 9.13477 7.58012 9.3418 7.58012 9.5957L8.05473 16.9395C8.05473 17.1934 7.8477 17.4004 7.59379 17.4004ZM10.9395 16.9395C10.9395 17.1934 10.7325 17.4004 10.4786 17.4004H10.0977C9.84379 17.4004 9.63676 17.1934 9.63676 16.9395V9.5957C9.63676 9.3418 9.84379 9.13477 10.0977 9.13477H10.4786C10.7325 9.13477 10.9395 9.3418 10.9395 9.5957V16.9395ZM13.836 16.9395C13.836 17.1934 13.6289 17.4004 13.375 17.4004H12.9942C12.7403 17.4004 12.5332 17.1934 12.5332 16.9395L13.0079 9.5957C13.0079 9.3418 13.2149 9.13477 13.4688 9.13477H13.8496C14.1036 9.13477 14.3106 9.3418 14.3106 9.5957L13.836 16.9395ZM16.9786 2.99219L3.20903 6.15625C3.1309 6.17383 3.05473 6.125 3.03715 6.04883L2.86528 5.29688C2.73247 4.72071 3.09575 4.14063 3.67192 4.00781L15.625 1.25977C16.2012 1.12695 16.7813 1.49024 16.9141 2.06641L17.086 2.81836C17.1036 2.89649 17.0567 2.97461 16.9786 2.99219ZM7.54887 2.48633C7.42192 1.94141 7.76371 1.39063 8.31059 1.26367L10.2286 0.818361C10.7735 0.691408 11.3243 1.0332 11.4512 1.58008L11.5254 1.89649L12.3907 1.69531L12.3301 1.43555C12.1016 0.451174 11.1094 -0.166014 10.127 0.0625018L8.07817 0.539064C7.09379 0.76758 6.47661 1.75977 6.70512 2.74219L6.76371 2.99805L7.62114 2.79883L7.54887 2.48633Z" fill="#285AD8"/>
</svg>
