<svg width="28" height="28" viewBox="0 0 28 28" fill="none" xmlns="http://www.w3.org/2000/svg">
<path d="M24.8733 11.1417L22.6683 10.4067L23.7066 8.33C23.8119 8.11263 23.8471 7.86796 23.8074 7.62973C23.7677 7.39151 23.655 7.17148 23.485 7L21 4.515C20.8276 4.34243 20.6054 4.22824 20.3648 4.18848C20.1241 4.14872 19.8771 4.18539 19.6583 4.29333L17.5816 5.33167L16.8466 3.12667C16.769 2.89682 16.6217 2.6969 16.4251 2.5547C16.2286 2.41251 15.9926 2.33513 15.75 2.33333H12.25C12.0054 2.3327 11.7668 2.40895 11.5679 2.55131C11.369 2.69367 11.2199 2.89494 11.1417 3.12667L10.4066 5.33167L8.32998 4.29333C8.11262 4.18808 7.86794 4.15287 7.62972 4.19257C7.39149 4.23228 7.17146 4.34493 6.99998 4.515L4.51498 7C4.34242 7.17239 4.22822 7.39454 4.18846 7.6352C4.1487 7.87586 4.18537 8.12293 4.29332 8.34167L5.33165 10.4183L3.12665 11.1533C2.89681 11.231 2.69688 11.3783 2.55469 11.5749C2.4125 11.7714 2.33512 12.0074 2.33332 12.25V15.75C2.33269 15.9946 2.40894 16.2332 2.5513 16.4321C2.69366 16.631 2.89493 16.7801 3.12665 16.8583L5.33165 17.5933L4.29332 19.67C4.18806 19.8874 4.15285 20.132 4.19256 20.3703C4.23226 20.6085 4.34492 20.8285 4.51498 21L6.99998 23.485C7.17238 23.6576 7.39452 23.7718 7.63518 23.8115C7.87584 23.8513 8.12291 23.8146 8.34165 23.7067L10.4183 22.6683L11.1533 24.8733C11.2316 25.1051 11.3807 25.3063 11.5796 25.4487C11.7785 25.591 12.0171 25.6673 12.2616 25.6667H15.7616C16.0062 25.6673 16.2448 25.591 16.4437 25.4487C16.6426 25.3063 16.7917 25.1051 16.87 24.8733L17.605 22.6683L19.6817 23.7067C19.8976 23.8093 20.1399 23.843 20.3757 23.8034C20.6115 23.7637 20.8294 23.6526 21 23.485L23.485 21C23.6575 20.8276 23.7717 20.6055 23.8115 20.3648C23.8513 20.1241 23.8146 19.8771 23.7066 19.6583L22.6683 17.5817L24.8733 16.8467C25.1032 16.769 25.3031 16.6217 25.4453 16.4251C25.5875 16.2286 25.6648 15.9926 25.6667 15.75V12.25C25.6673 12.0054 25.591 11.7668 25.4487 11.5679C25.3063 11.369 25.105 11.2199 24.8733 11.1417ZM23.3333 14.91L21.9333 15.3767C21.6114 15.4811 21.316 15.6543 21.0677 15.8843C20.8194 16.1143 20.6241 16.3955 20.4954 16.7085C20.3666 17.0215 20.3075 17.3588 20.3221 17.6969C20.3367 18.035 20.4247 18.3659 20.58 18.6667L21.245 19.9967L19.9616 21.28L18.6666 20.58C18.3675 20.4309 18.0397 20.3479 17.7057 20.3365C17.3716 20.3251 17.039 20.3856 16.7304 20.514C16.4217 20.6423 16.1442 20.8354 15.9167 21.0803C15.6892 21.3252 15.517 21.6161 15.4116 21.9333L14.945 23.3333H13.09L12.6233 21.9333C12.5189 21.6114 12.3457 21.316 12.1157 21.0677C11.8857 20.8194 11.6045 20.6241 11.2915 20.4954C10.9785 20.3666 10.6412 20.3075 10.3031 20.3221C9.96495 20.3367 9.63404 20.4247 9.33332 20.58L8.00332 21.245L6.71998 19.9617L7.41998 18.6667C7.57526 18.3659 7.66326 18.035 7.67787 17.6969C7.69248 17.3588 7.63336 17.0215 7.50461 16.7085C7.37586 16.3955 7.18056 16.1143 6.93225 15.8843C6.68395 15.6543 6.38858 15.4811 6.06665 15.3767L4.66665 14.91V13.09L6.06665 12.6233C6.38858 12.5189 6.68395 12.3457 6.93225 12.1157C7.18056 11.8857 7.37586 11.6045 7.50461 11.2915C7.63336 10.9785 7.69248 10.6412 7.67787 10.3031C7.66326 9.96496 7.57526 9.63406 7.41998 9.33333L6.75498 8.03833L8.03832 6.755L9.33332 7.42C9.63404 7.57527 9.96495 7.66327 10.3031 7.67789C10.6412 7.6925 10.9785 7.63338 11.2915 7.50463C11.6045 7.37587 11.8857 7.18057 12.1157 6.93227C12.3457 6.68396 12.5189 6.3886 12.6233 6.06667L13.09 4.66667H14.91L15.3766 6.06667C15.4811 6.3886 15.6543 6.68396 15.8843 6.93227C16.1142 7.18057 16.3955 7.37587 16.7085 7.50463C17.0215 7.63338 17.3588 7.6925 17.6969 7.67789C18.035 7.66327 18.3659 7.57527 18.6666 7.42L19.9966 6.755L21.28 8.03833L20.58 9.33333C20.4309 9.63252 20.3479 9.96024 20.3365 10.2943C20.3251 10.6284 20.3856 10.961 20.5139 11.2696C20.6423 11.5783 20.8354 11.8557 21.0803 12.0833C21.3252 12.3108 21.6161 12.483 21.9333 12.5883L23.3333 13.055V14.91ZM14 9.33333C13.077 9.33333 12.1748 9.60703 11.4073 10.1198C10.6399 10.6326 10.0418 11.3614 9.68855 12.2141C9.33534 13.0669 9.24292 14.0052 9.42299 14.9104C9.60305 15.8157 10.0475 16.6472 10.7002 17.2998C11.3528 17.9525 12.1843 18.3969 13.0896 18.577C13.9948 18.7571 14.9331 18.6646 15.7858 18.3114C16.6386 17.9582 17.3674 17.3601 17.8802 16.5927C18.393 15.8252 18.6666 14.923 18.6666 14C18.6666 12.7623 18.175 11.5753 17.2998 10.7002C16.4246 9.825 15.2377 9.33333 14 9.33333ZM14 16.3333C13.5385 16.3333 13.0874 16.1965 12.7037 15.9401C12.3199 15.6837 12.0209 15.3193 11.8443 14.8929C11.6677 14.4666 11.6215 13.9974 11.7115 13.5448C11.8015 13.0922 12.0237 12.6764 12.3501 12.3501C12.6764 12.0238 13.0921 11.8015 13.5448 11.7115C13.9974 11.6215 14.4665 11.6677 14.8929 11.8443C15.3193 12.0209 15.6837 12.32 15.9401 12.7037C16.1965 13.0874 16.3333 13.5385 16.3333 14C16.3333 14.6188 16.0875 15.2123 15.6499 15.6499C15.2123 16.0875 14.6188 16.3333 14 16.3333Z" fill="#717986"/>
</svg>
