<svg width="20" height="20" viewBox="0 0 20 20" fill="none" xmlns="http://www.w3.org/2000/svg">
<g clip-path="url(#clip0_38_148)">
<path d="M14.5443 2.07942C14.2783 1.93503 13.9658 1.90226 13.6755 1.9883C13.3853 2.07434 13.1411 2.27215 12.9968 2.53821C12.8524 2.80427 12.8196 3.11679 12.9056 3.40702C12.9917 3.69725 13.1895 3.94141 13.4556 4.08579C14.6037 4.70807 15.5624 5.62895 16.2304 6.75112C16.8983 7.8733 17.2507 9.15507 17.2503 10.461C17.2515 14.4601 13.9988 17.7127 9.99975 17.7127C6.0007 17.7127 2.74805 14.4601 2.74805 10.461C2.74805 7.88626 4.06737 5.56033 6.27917 4.23416C6.41127 4.15893 6.52701 4.05807 6.6196 3.9375C6.71218 3.81692 6.77974 3.67907 6.81832 3.53203C6.85689 3.38498 6.86571 3.23172 6.84423 3.08122C6.82276 2.93073 6.77144 2.78604 6.69329 2.65565C6.61513 2.52526 6.51171 2.4118 6.3891 2.32193C6.2665 2.23206 6.12717 2.16759 5.9793 2.1323C5.83144 2.09702 5.67801 2.09163 5.52803 2.11645C5.37805 2.14128 5.23455 2.19581 5.10594 2.27686C3.13313 3.45886 1.65323 5.3132 0.938243 7.49905C0.223258 9.68489 0.321234 12.0553 1.21416 14.1747C2.20063 16.503 4.07046 18.3449 6.41335 19.2962C8.75625 20.2475 11.3808 20.2305 13.7112 19.2489C15.3645 18.549 16.7868 17.3968 17.8144 15.9247C18.8421 14.4525 19.4334 12.7202 19.5205 10.927C19.6075 9.13376 19.1867 7.35237 18.3064 5.78763C17.4261 4.2229 16.1221 2.93836 14.5443 2.0817V2.07942Z" fill="white"/>
<path d="M9.99968 10.8445C10.3024 10.8445 10.5927 10.7242 10.8067 10.5102C11.0207 10.2962 11.141 10.0059 11.141 9.70318V1.14128C11.141 0.991407 11.1114 0.842999 11.0541 0.704533C10.9967 0.566066 10.9127 0.440252 10.8067 0.334274C10.7007 0.228296 10.5749 0.14423 10.4364 0.086875C10.298 0.0295202 10.1496 0 9.99968 0C9.84981 0 9.7014 0.0295202 9.56293 0.086875C9.42446 0.14423 9.29865 0.228296 9.19267 0.334274C9.08669 0.440252 9.00263 0.566066 8.94527 0.704533C8.88792 0.842999 8.8584 0.991407 8.8584 1.14128V9.70318C8.8584 10.0059 8.97864 10.2962 9.19267 10.5102C9.4067 10.7242 9.69699 10.8445 9.99968 10.8445Z" fill="white"/>
</g>
<defs>
<clipPath id="clip0_38_148">
<rect width="20" height="20" fill="white"/>
</clipPath>
</defs>
</svg>
