<svg width="30" height="24" viewBox="0 0 30 24" fill="none" xmlns="http://www.w3.org/2000/svg">
<path d="M8.08509 14.29L7.73199 14.59V7C7.73199 6.73478 7.60371 6.48043 7.37537 6.29289C7.14703 6.10536 6.83733 6 6.51441 6C6.19149 6 5.88179 6.10536 5.65345 6.29289C5.42511 6.48043 5.29683 6.73478 5.29683 7V14.59L4.94373 14.29C4.71446 14.1017 4.40349 13.9959 4.07925 13.9959C3.75501 13.9959 3.44404 14.1017 3.21477 14.29C2.98549 14.4783 2.85669 14.7337 2.85669 15C2.85669 15.2663 2.98549 15.5217 3.21477 15.71L5.64993 17.71C5.76572 17.801 5.90227 17.8724 6.05173 17.92C6.19747 17.9729 6.35506 18.0002 6.51441 18.0002C6.67375 18.0002 6.83134 17.9729 6.97709 17.92C7.12655 17.8724 7.26309 17.801 7.37889 17.71L9.81405 15.71C9.92757 15.6168 10.0176 15.5061 10.0791 15.3842C10.1405 15.2624 10.1721 15.1319 10.1721 15C10.1721 14.8681 10.1405 14.7376 10.0791 14.6158C10.0176 14.4939 9.92757 14.3832 9.81405 14.29C9.70052 14.1968 9.56575 14.1228 9.41742 14.0723C9.26909 14.0219 9.11012 13.9959 8.94957 13.9959C8.78902 13.9959 8.63004 14.0219 8.48171 14.0723C8.33339 14.1228 8.19861 14.1968 8.08509 14.29ZM13.8199 8H25.9957C26.3186 8 26.6283 7.89464 26.8566 7.70711C27.085 7.51957 27.2133 7.26522 27.2133 7C27.2133 6.73478 27.085 6.48043 26.8566 6.29289C26.6283 6.10536 26.3186 6 25.9957 6H13.8199C13.497 6 13.1873 6.10536 12.9589 6.29289C12.7306 6.48043 12.6023 6.73478 12.6023 7C12.6023 7.26522 12.7306 7.51957 12.9589 7.70711C13.1873 7.89464 13.497 8 13.8199 8ZM25.9957 11H13.8199C13.497 11 13.1873 11.1054 12.9589 11.2929C12.7306 11.4804 12.6023 11.7348 12.6023 12C12.6023 12.2652 12.7306 12.5196 12.9589 12.7071C13.1873 12.8946 13.497 13 13.8199 13H25.9957C26.3186 13 26.6283 12.8946 26.8566 12.7071C27.085 12.5196 27.2133 12.2652 27.2133 12C27.2133 11.7348 27.085 11.4804 26.8566 11.2929C26.6283 11.1054 26.3186 11 25.9957 11ZM25.9957 16H13.8199C13.497 16 13.1873 16.1054 12.9589 16.2929C12.7306 16.4804 12.6023 16.7348 12.6023 17C12.6023 17.2652 12.7306 17.5196 12.9589 17.7071C13.1873 17.8946 13.497 18 13.8199 18H25.9957C26.3186 18 26.6283 17.8946 26.8566 17.7071C27.085 17.5196 27.2133 17.2652 27.2133 17C27.2133 16.7348 27.085 16.4804 26.8566 16.2929C26.6283 16.1054 26.3186 16 25.9957 16Z" fill="#3C557A"/>
</svg>
