<svg width="24" height="24" viewBox="0 0 24 24" fill="none" xmlns="http://www.w3.org/2000/svg">
<path d="M0 5.25V18.75C0 19.5773 0.672656 20.25 1.5 20.25H22.5C23.3273 20.25 24 19.5773 24 18.75V5.25C24 4.42266 23.3273 3.75 22.5 3.75H1.5C0.672656 3.75 0 4.42266 0 5.25ZM12 4.125C12.2063 4.125 12.375 4.29375 12.375 4.5C12.375 4.70625 12.2063 4.875 12 4.875C11.7937 4.875 11.625 4.70625 11.625 4.5C11.625 4.29375 11.7937 4.125 12 4.125ZM22.125 18.75H1.875C1.66875 18.75 1.5 18.5813 1.5 18.375V5.625C1.5 5.41875 1.66875 5.25 1.875 5.25H22.125C22.3312 5.25 22.5 5.41875 22.5 5.625V18.375C22.5 18.5813 22.3312 18.75 22.125 18.75Z" fill="#303030"/>
<path d="M21.6562 18H2.34375C2.29219 18 2.25 17.9578 2.25 17.9062V6.09375C2.25 6.04219 2.29219 6 2.34375 6H21.6562C21.7078 6 21.75 6.04219 21.75 6.09375V17.9062C21.75 17.9578 21.7078 18 21.6562 18Z" fill="#303030"/>
</svg>
