<svg width="20" height="20" viewBox="0 0 20 20" fill="none" xmlns="http://www.w3.org/2000/svg">
<path d="M3.56862 5.22911C5.04249 3.28644 7.37149 2.02911 9.99993 2.02911C13.5192 2.02911 16.5058 4.28137 17.6167 7.42051H19.5016C18.3267 3.27321 14.5221 0.231974 9.99949 0.231974C6.74745 0.231974 3.87292 1.80904 2.07402 4.2333L0.115479 2.92789V9.2172L5.50688 6.52128L3.56862 5.22911ZM14.4925 13.7098L16.4308 15.0024C14.9569 16.9451 12.6279 18.2024 9.99993 18.2024C6.4802 18.2024 3.49453 15.9502 2.38317 12.811H0.497397C1.67226 16.9583 5.47645 19.9996 9.99949 19.9996C13.2515 19.9996 16.1261 18.4225 17.9245 15.9982L19.8835 17.3036V11.0143L14.4925 13.7098ZM12.6954 7.42007H7.30445C7.06614 7.42007 6.83758 7.51474 6.66907 7.68325C6.50056 7.85177 6.40589 8.08032 6.40589 8.31863C6.40589 8.55695 6.50056 8.7855 6.66907 8.95402C6.83758 9.12253 7.06614 9.2172 7.30445 9.2172H12.6959C12.9282 9.20823 13.148 9.1096 13.3092 8.94202C13.4704 8.77444 13.5604 8.55094 13.5604 8.31842C13.5603 8.0859 13.4702 7.86244 13.3089 7.69494C13.1476 7.52744 12.9278 7.42893 12.6954 7.42007ZM12.6954 11.0143H7.30445C7.06614 11.0143 6.83758 11.109 6.66907 11.2775C6.50056 11.446 6.40589 11.6746 6.40589 11.9129C6.40589 12.1512 6.50056 12.3798 6.66907 12.5483C6.83758 12.7168 7.06614 12.8115 7.30445 12.8115H12.6959C12.9342 12.8114 13.1627 12.7167 13.3312 12.5481C13.4996 12.3796 13.5943 12.151 13.5942 11.9127C13.5941 11.6744 13.4994 11.4458 13.3309 11.2774C13.1623 11.1089 12.9337 11.0143 12.6954 11.0143Z" fill="white"/>
</svg>
