<svg width="24" height="24" viewBox="0 0 24 24" fill="none" xmlns="http://www.w3.org/2000/svg">
<rect width="24" height="24" fill="#3C557A"/>
<path d="M19 11H13V5C13 4.73478 12.8946 4.48043 12.7071 4.29289C12.5195 4.10536 12.2652 4 12 4C11.7348 4 11.4804 4.10536 11.2929 4.29289C11.1053 4.48043 11 4.73478 11 5V11H4.99997C4.73475 11 4.4804 11.1054 4.29286 11.2929C4.10533 11.4804 3.99997 11.7348 3.99997 12C3.99997 12.2652 4.10533 12.5196 4.29286 12.7071C4.4804 12.8946 4.73475 13 4.99997 13H11V19C11 19.2652 11.1053 19.5196 11.2929 19.7071C11.4804 19.8946 11.7348 20 12 20C12.2652 20 12.5195 19.8946 12.7071 19.7071C12.8946 19.5196 13 19.2652 13 19V13H19C19.2652 13 19.5195 12.8946 19.7071 12.7071C19.8946 12.5196 20 12.2652 20 12C20 11.7348 19.8946 11.4804 19.7071 11.2929C19.5195 11.1054 19.2652 11 19 11Z" fill="white"/>
</svg>
